<mxfile host="app.diagrams.net" modified="2024-01-07T23:39:50.620Z" agent="Mozilla/5.0 (Windows NT 10.0; Win64; x64) AppleWebKit/537.36 (KHTML, like Gecko) Chrome/120.0.0.0 Safari/537.36 Edg/120.0.0.0" etag="ZgTvXGSuHBDfCSKN8KR9" version="22.1.17" type="github">
  <diagram name="Page-1" id="2YBvvXClWsGukQMizWep">
    <mxGraphModel dx="1050" dy="541" grid="1" gridSize="10" guides="1" tooltips="1" connect="1" arrows="1" fold="1" page="1" pageScale="1" pageWidth="850" pageHeight="1100" math="0" shadow="0">
      <root>
        <mxCell id="0" />
        <mxCell id="1" parent="0" />
        <mxCell id="aM9ryv3xv72pqoxQDRHE-1" value="Giao diện" style="shape=umlLifeline;perimeter=lifelinePerimeter;whiteSpace=wrap;html=1;container=0;dropTarget=0;collapsible=0;recursiveResize=0;outlineConnect=0;portConstraint=eastwest;newEdgeStyle={&quot;edgeStyle&quot;:&quot;elbowEdgeStyle&quot;,&quot;elbow&quot;:&quot;vertical&quot;,&quot;curved&quot;:0,&quot;rounded&quot;:0};" parent="1" vertex="1">
          <mxGeometry x="160" y="40" width="100" height="480" as="geometry" />
        </mxCell>
        <mxCell id="fi817YxVfnDkpDfHuI8M-5" value="" style="html=1;points=[[0,0,0,0,5],[0,1,0,0,-5],[1,0,0,0,5],[1,1,0,0,-5]];perimeter=orthogonalPerimeter;outlineConnect=0;targetShapes=umlLifeline;portConstraint=eastwest;newEdgeStyle={&quot;curved&quot;:0,&quot;rounded&quot;:0};" vertex="1" parent="aM9ryv3xv72pqoxQDRHE-1">
          <mxGeometry x="45" y="80" width="10" height="260" as="geometry" />
        </mxCell>
        <mxCell id="aM9ryv3xv72pqoxQDRHE-5" value="Hệ thống" style="shape=umlLifeline;perimeter=lifelinePerimeter;whiteSpace=wrap;html=1;container=0;dropTarget=0;collapsible=0;recursiveResize=0;outlineConnect=0;portConstraint=eastwest;newEdgeStyle={&quot;edgeStyle&quot;:&quot;elbowEdgeStyle&quot;,&quot;elbow&quot;:&quot;vertical&quot;,&quot;curved&quot;:0,&quot;rounded&quot;:0};" parent="1" vertex="1">
          <mxGeometry x="340" y="40" width="100" height="480" as="geometry" />
        </mxCell>
        <mxCell id="fi817YxVfnDkpDfHuI8M-15" value="" style="html=1;points=[[0,0,0,0,5],[0,1,0,0,-5],[1,0,0,0,5],[1,1,0,0,-5]];perimeter=orthogonalPerimeter;outlineConnect=0;targetShapes=umlLifeline;portConstraint=eastwest;newEdgeStyle={&quot;curved&quot;:0,&quot;rounded&quot;:0};" vertex="1" parent="aM9ryv3xv72pqoxQDRHE-5">
          <mxGeometry x="45" y="210" width="10" height="130" as="geometry" />
        </mxCell>
        <mxCell id="fi817YxVfnDkpDfHuI8M-17" value="" style="html=1;points=[[0,0,0,0,5],[0,1,0,0,-5],[1,0,0,0,5],[1,1,0,0,-5]];perimeter=orthogonalPerimeter;outlineConnect=0;targetShapes=umlLifeline;portConstraint=eastwest;newEdgeStyle={&quot;curved&quot;:0,&quot;rounded&quot;:0};" vertex="1" parent="aM9ryv3xv72pqoxQDRHE-5">
          <mxGeometry x="50" y="250" width="10" height="40" as="geometry" />
        </mxCell>
        <mxCell id="fi817YxVfnDkpDfHuI8M-18" value="Kiểm tra validate()" style="html=1;align=left;spacingLeft=2;endArrow=block;rounded=0;edgeStyle=orthogonalEdgeStyle;curved=0;rounded=0;" edge="1" target="fi817YxVfnDkpDfHuI8M-17" parent="aM9ryv3xv72pqoxQDRHE-5">
          <mxGeometry relative="1" as="geometry">
            <mxPoint x="55" y="230" as="sourcePoint" />
            <Array as="points">
              <mxPoint x="85" y="260" />
            </Array>
          </mxGeometry>
        </mxCell>
        <mxCell id="fi817YxVfnDkpDfHuI8M-1" value="Firestore" style="shape=umlLifeline;perimeter=lifelinePerimeter;whiteSpace=wrap;html=1;container=0;dropTarget=0;collapsible=0;recursiveResize=0;outlineConnect=0;portConstraint=eastwest;newEdgeStyle={&quot;edgeStyle&quot;:&quot;elbowEdgeStyle&quot;,&quot;elbow&quot;:&quot;vertical&quot;,&quot;curved&quot;:0,&quot;rounded&quot;:0};" vertex="1" parent="1">
          <mxGeometry x="520" y="40" width="100" height="480" as="geometry" />
        </mxCell>
        <mxCell id="fi817YxVfnDkpDfHuI8M-22" value="" style="html=1;points=[[0,0,0,0,5],[0,1,0,0,-5],[1,0,0,0,5],[1,1,0,0,-5]];perimeter=orthogonalPerimeter;outlineConnect=0;targetShapes=umlLifeline;portConstraint=eastwest;newEdgeStyle={&quot;curved&quot;:0,&quot;rounded&quot;:0};" vertex="1" parent="fi817YxVfnDkpDfHuI8M-1">
          <mxGeometry x="45" y="340" width="10" height="40" as="geometry" />
        </mxCell>
        <mxCell id="fi817YxVfnDkpDfHuI8M-2" value="" style="shape=umlLifeline;perimeter=lifelinePerimeter;whiteSpace=wrap;html=1;container=1;dropTarget=0;collapsible=0;recursiveResize=0;outlineConnect=0;portConstraint=eastwest;newEdgeStyle={&quot;curved&quot;:0,&quot;rounded&quot;:0};participant=umlActor;" vertex="1" parent="1">
          <mxGeometry x="60" y="40" width="20" height="480" as="geometry" />
        </mxCell>
        <mxCell id="fi817YxVfnDkpDfHuI8M-10" value="" style="html=1;points=[[0,0,0,0,5],[0,1,0,0,-5],[1,0,0,0,5],[1,1,0,0,-5]];perimeter=orthogonalPerimeter;outlineConnect=0;targetShapes=umlLifeline;portConstraint=eastwest;newEdgeStyle={&quot;curved&quot;:0,&quot;rounded&quot;:0};" vertex="1" parent="fi817YxVfnDkpDfHuI8M-2">
          <mxGeometry x="5" y="90" width="10" height="170" as="geometry" />
        </mxCell>
        <mxCell id="fi817YxVfnDkpDfHuI8M-4" value="" style="endArrow=classic;html=1;rounded=0;exitX=0.5;exitY=0.167;exitDx=0;exitDy=0;exitPerimeter=0;" edge="1" parent="1" source="fi817YxVfnDkpDfHuI8M-2" target="aM9ryv3xv72pqoxQDRHE-1">
          <mxGeometry width="50" height="50" relative="1" as="geometry">
            <mxPoint x="400" y="280" as="sourcePoint" />
            <mxPoint x="440" y="230" as="targetPoint" />
            <Array as="points">
              <mxPoint x="140" y="120" />
            </Array>
          </mxGeometry>
        </mxCell>
        <mxCell id="fi817YxVfnDkpDfHuI8M-7" value="chọn đăng ký" style="text;html=1;align=center;verticalAlign=middle;resizable=0;points=[];autosize=1;strokeColor=none;fillColor=none;" vertex="1" parent="1">
          <mxGeometry x="100" y="90" width="90" height="30" as="geometry" />
        </mxCell>
        <mxCell id="fi817YxVfnDkpDfHuI8M-8" value="" style="endArrow=none;html=1;rounded=0;startArrow=classic;startFill=1;endFill=0;" edge="1" parent="1" source="fi817YxVfnDkpDfHuI8M-10" target="fi817YxVfnDkpDfHuI8M-5">
          <mxGeometry width="50" height="50" relative="1" as="geometry">
            <mxPoint x="80" y="160" as="sourcePoint" />
            <mxPoint x="140" y="150" as="targetPoint" />
            <Array as="points">
              <mxPoint x="150" y="160" />
            </Array>
          </mxGeometry>
        </mxCell>
        <mxCell id="fi817YxVfnDkpDfHuI8M-9" value="Yêu cầu nhập thông tin" style="text;html=1;align=center;verticalAlign=middle;resizable=0;points=[];autosize=1;strokeColor=none;fillColor=none;" vertex="1" parent="1">
          <mxGeometry x="65" y="128" width="150" height="30" as="geometry" />
        </mxCell>
        <mxCell id="fi817YxVfnDkpDfHuI8M-12" value="" style="edgeStyle=orthogonalEdgeStyle;rounded=0;orthogonalLoop=1;jettySize=auto;html=1;curved=0;" edge="1" parent="1" source="fi817YxVfnDkpDfHuI8M-10" target="fi817YxVfnDkpDfHuI8M-5">
          <mxGeometry relative="1" as="geometry">
            <Array as="points">
              <mxPoint x="180" y="215" />
              <mxPoint x="180" y="215" />
            </Array>
          </mxGeometry>
        </mxCell>
        <mxCell id="fi817YxVfnDkpDfHuI8M-13" value="Nhập thông&amp;nbsp; tin" style="text;html=1;align=center;verticalAlign=middle;resizable=0;points=[];autosize=1;strokeColor=none;fillColor=none;" vertex="1" parent="1">
          <mxGeometry x="80" y="188" width="100" height="30" as="geometry" />
        </mxCell>
        <mxCell id="fi817YxVfnDkpDfHuI8M-14" value="" style="edgeStyle=orthogonalEdgeStyle;rounded=0;orthogonalLoop=1;jettySize=auto;html=1;curved=0;" edge="1" parent="1" target="aM9ryv3xv72pqoxQDRHE-5">
          <mxGeometry relative="1" as="geometry">
            <mxPoint x="215.5" y="250" as="sourcePoint" />
            <mxPoint x="330" y="251" as="targetPoint" />
            <Array as="points">
              <mxPoint x="216" y="251" />
            </Array>
          </mxGeometry>
        </mxCell>
        <mxCell id="fi817YxVfnDkpDfHuI8M-16" value="Gửi dữ liệu" style="text;html=1;align=center;verticalAlign=middle;resizable=0;points=[];autosize=1;strokeColor=none;fillColor=none;" vertex="1" parent="1">
          <mxGeometry x="250" y="218" width="80" height="30" as="geometry" />
        </mxCell>
        <mxCell id="fi817YxVfnDkpDfHuI8M-19" value="" style="endArrow=none;html=1;rounded=0;startArrow=classic;startFill=1;endFill=0;dashed=1;" edge="1" parent="1" source="fi817YxVfnDkpDfHuI8M-5" target="fi817YxVfnDkpDfHuI8M-15">
          <mxGeometry width="50" height="50" relative="1" as="geometry">
            <mxPoint x="250" y="340" as="sourcePoint" />
            <mxPoint x="380" y="340" as="targetPoint" />
            <Array as="points">
              <mxPoint x="325" y="340" />
            </Array>
          </mxGeometry>
        </mxCell>
        <mxCell id="fi817YxVfnDkpDfHuI8M-20" value="yêu cầu nhập lại" style="text;html=1;align=center;verticalAlign=middle;resizable=0;points=[];autosize=1;strokeColor=none;fillColor=none;" vertex="1" parent="1">
          <mxGeometry x="235" y="308" width="110" height="30" as="geometry" />
        </mxCell>
        <mxCell id="fi817YxVfnDkpDfHuI8M-21" value="" style="edgeStyle=orthogonalEdgeStyle;rounded=0;orthogonalLoop=1;jettySize=auto;html=1;curved=0;" edge="1" parent="1" target="fi817YxVfnDkpDfHuI8M-1">
          <mxGeometry relative="1" as="geometry">
            <mxPoint x="390" y="380" as="sourcePoint" />
            <mxPoint x="550" y="381" as="targetPoint" />
            <Array as="points">
              <mxPoint x="390" y="381" />
            </Array>
          </mxGeometry>
        </mxCell>
        <mxCell id="fi817YxVfnDkpDfHuI8M-23" value="Lưu dữ liệu" style="text;html=1;align=center;verticalAlign=middle;resizable=0;points=[];autosize=1;strokeColor=none;fillColor=none;" vertex="1" parent="1">
          <mxGeometry x="440" y="348" width="80" height="30" as="geometry" />
        </mxCell>
        <mxCell id="fi817YxVfnDkpDfHuI8M-24" value="" style="endArrow=none;html=1;rounded=0;startArrow=classic;startFill=1;endFill=0;dashed=1;" edge="1" parent="1" source="aM9ryv3xv72pqoxQDRHE-5">
          <mxGeometry width="50" height="50" relative="1" as="geometry">
            <mxPoint x="395" y="420" as="sourcePoint" />
            <mxPoint x="565" y="420" as="targetPoint" />
            <Array as="points">
              <mxPoint x="505" y="420" />
            </Array>
          </mxGeometry>
        </mxCell>
        <mxCell id="fi817YxVfnDkpDfHuI8M-25" value="Trả về kết quả lưu" style="text;html=1;align=center;verticalAlign=middle;resizable=0;points=[];autosize=1;strokeColor=none;fillColor=none;" vertex="1" parent="1">
          <mxGeometry x="420" y="420" width="120" height="30" as="geometry" />
        </mxCell>
        <mxCell id="fi817YxVfnDkpDfHuI8M-26" value="" style="endArrow=none;html=1;rounded=0;startArrow=classic;startFill=1;endFill=0;dashed=1;" edge="1" parent="1" target="aM9ryv3xv72pqoxQDRHE-5">
          <mxGeometry width="50" height="50" relative="1" as="geometry">
            <mxPoint x="210" y="450" as="sourcePoint" />
            <mxPoint x="377.5" y="450" as="targetPoint" />
            <Array as="points">
              <mxPoint x="317.5" y="450" />
            </Array>
          </mxGeometry>
        </mxCell>
        <mxCell id="fi817YxVfnDkpDfHuI8M-27" value="&lt;p style=&quot;line-height: 10%;&quot;&gt;thông báo thêm dữ&lt;/p&gt;&lt;p style=&quot;line-height: 10%;&quot;&gt;&amp;nbsp;liêụ thành công&lt;/p&gt;" style="text;html=1;align=center;verticalAlign=middle;resizable=0;points=[];autosize=1;strokeColor=none;fillColor=none;" vertex="1" parent="1">
          <mxGeometry x="235" y="450" width="120" height="50" as="geometry" />
        </mxCell>
        <mxCell id="fi817YxVfnDkpDfHuI8M-28" value="" style="endArrow=none;html=1;rounded=0;startArrow=classic;startFill=1;endFill=0;dashed=1;" edge="1" parent="1">
          <mxGeometry width="50" height="50" relative="1" as="geometry">
            <mxPoint x="70" y="470" as="sourcePoint" />
            <mxPoint x="210" y="470" as="targetPoint" />
            <Array as="points">
              <mxPoint x="150" y="470" />
            </Array>
          </mxGeometry>
        </mxCell>
        <mxCell id="fi817YxVfnDkpDfHuI8M-29" value="Chuyển màn hình&lt;br&gt;&amp;nbsp;kênh người bán" style="text;html=1;align=center;verticalAlign=middle;resizable=0;points=[];autosize=1;strokeColor=none;fillColor=none;" vertex="1" parent="1">
          <mxGeometry x="80" y="473" width="120" height="40" as="geometry" />
        </mxCell>
        <mxCell id="fi817YxVfnDkpDfHuI8M-30" value="Giao diện" style="shape=umlLifeline;perimeter=lifelinePerimeter;whiteSpace=wrap;html=1;container=0;dropTarget=0;collapsible=0;recursiveResize=0;outlineConnect=0;portConstraint=eastwest;newEdgeStyle={&quot;edgeStyle&quot;:&quot;elbowEdgeStyle&quot;,&quot;elbow&quot;:&quot;vertical&quot;,&quot;curved&quot;:0,&quot;rounded&quot;:0};" vertex="1" parent="1">
          <mxGeometry x="830" y="40" width="100" height="480" as="geometry" />
        </mxCell>
        <mxCell id="fi817YxVfnDkpDfHuI8M-31" value="" style="html=1;points=[[0,0,0,0,5],[0,1,0,0,-5],[1,0,0,0,5],[1,1,0,0,-5]];perimeter=orthogonalPerimeter;outlineConnect=0;targetShapes=umlLifeline;portConstraint=eastwest;newEdgeStyle={&quot;curved&quot;:0,&quot;rounded&quot;:0};" vertex="1" parent="fi817YxVfnDkpDfHuI8M-30">
          <mxGeometry x="45" y="80" width="10" height="330" as="geometry" />
        </mxCell>
        <mxCell id="fi817YxVfnDkpDfHuI8M-32" value="Hệ thống" style="shape=umlLifeline;perimeter=lifelinePerimeter;whiteSpace=wrap;html=1;container=0;dropTarget=0;collapsible=0;recursiveResize=0;outlineConnect=0;portConstraint=eastwest;newEdgeStyle={&quot;edgeStyle&quot;:&quot;elbowEdgeStyle&quot;,&quot;elbow&quot;:&quot;vertical&quot;,&quot;curved&quot;:0,&quot;rounded&quot;:0};" vertex="1" parent="1">
          <mxGeometry x="1010" y="40" width="100" height="480" as="geometry" />
        </mxCell>
        <mxCell id="fi817YxVfnDkpDfHuI8M-33" value="" style="html=1;points=[[0,0,0,0,5],[0,1,0,0,-5],[1,0,0,0,5],[1,1,0,0,-5]];perimeter=orthogonalPerimeter;outlineConnect=0;targetShapes=umlLifeline;portConstraint=eastwest;newEdgeStyle={&quot;curved&quot;:0,&quot;rounded&quot;:0};" vertex="1" parent="fi817YxVfnDkpDfHuI8M-32">
          <mxGeometry x="45" y="210" width="10" height="200" as="geometry" />
        </mxCell>
        <mxCell id="fi817YxVfnDkpDfHuI8M-34" value="" style="html=1;points=[[0,0,0,0,5],[0,1,0,0,-5],[1,0,0,0,5],[1,1,0,0,-5]];perimeter=orthogonalPerimeter;outlineConnect=0;targetShapes=umlLifeline;portConstraint=eastwest;newEdgeStyle={&quot;curved&quot;:0,&quot;rounded&quot;:0};" vertex="1" parent="fi817YxVfnDkpDfHuI8M-32">
          <mxGeometry x="50" y="250" width="10" height="40" as="geometry" />
        </mxCell>
        <mxCell id="fi817YxVfnDkpDfHuI8M-35" value="Kiểm tra validate()" style="html=1;align=left;spacingLeft=2;endArrow=block;rounded=0;edgeStyle=orthogonalEdgeStyle;curved=0;rounded=0;" edge="1" parent="fi817YxVfnDkpDfHuI8M-32" target="fi817YxVfnDkpDfHuI8M-34">
          <mxGeometry relative="1" as="geometry">
            <mxPoint x="55" y="230" as="sourcePoint" />
            <Array as="points">
              <mxPoint x="85" y="260" />
            </Array>
          </mxGeometry>
        </mxCell>
        <mxCell id="fi817YxVfnDkpDfHuI8M-36" value="Firestore" style="shape=umlLifeline;perimeter=lifelinePerimeter;whiteSpace=wrap;html=1;container=0;dropTarget=0;collapsible=0;recursiveResize=0;outlineConnect=0;portConstraint=eastwest;newEdgeStyle={&quot;edgeStyle&quot;:&quot;elbowEdgeStyle&quot;,&quot;elbow&quot;:&quot;vertical&quot;,&quot;curved&quot;:0,&quot;rounded&quot;:0};" vertex="1" parent="1">
          <mxGeometry x="1190" y="40" width="100" height="480" as="geometry" />
        </mxCell>
        <mxCell id="fi817YxVfnDkpDfHuI8M-37" value="" style="html=1;points=[[0,0,0,0,5],[0,1,0,0,-5],[1,0,0,0,5],[1,1,0,0,-5]];perimeter=orthogonalPerimeter;outlineConnect=0;targetShapes=umlLifeline;portConstraint=eastwest;newEdgeStyle={&quot;curved&quot;:0,&quot;rounded&quot;:0};" vertex="1" parent="fi817YxVfnDkpDfHuI8M-36">
          <mxGeometry x="45" y="320" width="10" height="110" as="geometry" />
        </mxCell>
        <mxCell id="fi817YxVfnDkpDfHuI8M-58" value="" style="html=1;points=[[0,0,0,0,5],[0,1,0,0,-5],[1,0,0,0,5],[1,1,0,0,-5]];perimeter=orthogonalPerimeter;outlineConnect=0;targetShapes=umlLifeline;portConstraint=eastwest;newEdgeStyle={&quot;curved&quot;:0,&quot;rounded&quot;:0};" vertex="1" parent="fi817YxVfnDkpDfHuI8M-36">
          <mxGeometry x="50" y="350" width="10" height="40" as="geometry" />
        </mxCell>
        <mxCell id="fi817YxVfnDkpDfHuI8M-59" value="Kiểm tra dữ liệu" style="html=1;align=left;spacingLeft=2;endArrow=block;rounded=0;edgeStyle=orthogonalEdgeStyle;curved=0;rounded=0;" edge="1" parent="fi817YxVfnDkpDfHuI8M-36" target="fi817YxVfnDkpDfHuI8M-58">
          <mxGeometry relative="1" as="geometry">
            <mxPoint x="55" y="330" as="sourcePoint" />
            <Array as="points">
              <mxPoint x="85" y="360" />
            </Array>
          </mxGeometry>
        </mxCell>
        <mxCell id="fi817YxVfnDkpDfHuI8M-38" value="" style="shape=umlLifeline;perimeter=lifelinePerimeter;whiteSpace=wrap;html=1;container=1;dropTarget=0;collapsible=0;recursiveResize=0;outlineConnect=0;portConstraint=eastwest;newEdgeStyle={&quot;curved&quot;:0,&quot;rounded&quot;:0};participant=umlActor;" vertex="1" parent="1">
          <mxGeometry x="730" y="40" width="20" height="480" as="geometry" />
        </mxCell>
        <mxCell id="fi817YxVfnDkpDfHuI8M-39" value="" style="html=1;points=[[0,0,0,0,5],[0,1,0,0,-5],[1,0,0,0,5],[1,1,0,0,-5]];perimeter=orthogonalPerimeter;outlineConnect=0;targetShapes=umlLifeline;portConstraint=eastwest;newEdgeStyle={&quot;curved&quot;:0,&quot;rounded&quot;:0};" vertex="1" parent="fi817YxVfnDkpDfHuI8M-38">
          <mxGeometry x="5" y="90" width="10" height="170" as="geometry" />
        </mxCell>
        <mxCell id="fi817YxVfnDkpDfHuI8M-40" value="" style="endArrow=classic;html=1;rounded=0;exitX=0.5;exitY=0.167;exitDx=0;exitDy=0;exitPerimeter=0;" edge="1" parent="1" source="fi817YxVfnDkpDfHuI8M-38" target="fi817YxVfnDkpDfHuI8M-30">
          <mxGeometry width="50" height="50" relative="1" as="geometry">
            <mxPoint x="1070" y="280" as="sourcePoint" />
            <mxPoint x="1110" y="230" as="targetPoint" />
            <Array as="points">
              <mxPoint x="810" y="120" />
            </Array>
          </mxGeometry>
        </mxCell>
        <mxCell id="fi817YxVfnDkpDfHuI8M-41" value="chọn đăng nhập" style="text;html=1;align=center;verticalAlign=middle;resizable=0;points=[];autosize=1;strokeColor=none;fillColor=none;" vertex="1" parent="1">
          <mxGeometry x="760" y="90" width="110" height="30" as="geometry" />
        </mxCell>
        <mxCell id="fi817YxVfnDkpDfHuI8M-42" value="" style="endArrow=none;html=1;rounded=0;startArrow=classic;startFill=1;endFill=0;" edge="1" parent="1" source="fi817YxVfnDkpDfHuI8M-39" target="fi817YxVfnDkpDfHuI8M-31">
          <mxGeometry width="50" height="50" relative="1" as="geometry">
            <mxPoint x="750" y="160" as="sourcePoint" />
            <mxPoint x="810" y="150" as="targetPoint" />
            <Array as="points">
              <mxPoint x="820" y="160" />
            </Array>
          </mxGeometry>
        </mxCell>
        <mxCell id="fi817YxVfnDkpDfHuI8M-43" value="Yêu cầu nhập thông tin" style="text;html=1;align=center;verticalAlign=middle;resizable=0;points=[];autosize=1;strokeColor=none;fillColor=none;" vertex="1" parent="1">
          <mxGeometry x="735" y="128" width="150" height="30" as="geometry" />
        </mxCell>
        <mxCell id="fi817YxVfnDkpDfHuI8M-44" value="" style="edgeStyle=orthogonalEdgeStyle;rounded=0;orthogonalLoop=1;jettySize=auto;html=1;curved=0;" edge="1" parent="1" source="fi817YxVfnDkpDfHuI8M-39" target="fi817YxVfnDkpDfHuI8M-31">
          <mxGeometry relative="1" as="geometry">
            <Array as="points">
              <mxPoint x="850" y="215" />
              <mxPoint x="850" y="215" />
            </Array>
          </mxGeometry>
        </mxCell>
        <mxCell id="fi817YxVfnDkpDfHuI8M-45" value="Nhập thông&amp;nbsp; tin" style="text;html=1;align=center;verticalAlign=middle;resizable=0;points=[];autosize=1;strokeColor=none;fillColor=none;" vertex="1" parent="1">
          <mxGeometry x="750" y="188" width="100" height="30" as="geometry" />
        </mxCell>
        <mxCell id="fi817YxVfnDkpDfHuI8M-46" value="" style="edgeStyle=orthogonalEdgeStyle;rounded=0;orthogonalLoop=1;jettySize=auto;html=1;curved=0;" edge="1" parent="1" target="fi817YxVfnDkpDfHuI8M-32">
          <mxGeometry relative="1" as="geometry">
            <mxPoint x="885.5" y="250" as="sourcePoint" />
            <mxPoint x="1000" y="251" as="targetPoint" />
            <Array as="points">
              <mxPoint x="886" y="251" />
            </Array>
          </mxGeometry>
        </mxCell>
        <mxCell id="fi817YxVfnDkpDfHuI8M-47" value="Gửi dữ liệu" style="text;html=1;align=center;verticalAlign=middle;resizable=0;points=[];autosize=1;strokeColor=none;fillColor=none;" vertex="1" parent="1">
          <mxGeometry x="920" y="218" width="80" height="30" as="geometry" />
        </mxCell>
        <mxCell id="fi817YxVfnDkpDfHuI8M-48" value="" style="endArrow=none;html=1;rounded=0;startArrow=classic;startFill=1;endFill=0;dashed=1;" edge="1" parent="1" source="fi817YxVfnDkpDfHuI8M-31" target="fi817YxVfnDkpDfHuI8M-33">
          <mxGeometry width="50" height="50" relative="1" as="geometry">
            <mxPoint x="920" y="340" as="sourcePoint" />
            <mxPoint x="1050" y="340" as="targetPoint" />
            <Array as="points">
              <mxPoint x="995" y="340" />
            </Array>
          </mxGeometry>
        </mxCell>
        <mxCell id="fi817YxVfnDkpDfHuI8M-49" value="yêu cầu nhập lại" style="text;html=1;align=center;verticalAlign=middle;resizable=0;points=[];autosize=1;strokeColor=none;fillColor=none;" vertex="1" parent="1">
          <mxGeometry x="905" y="308" width="110" height="30" as="geometry" />
        </mxCell>
        <mxCell id="fi817YxVfnDkpDfHuI8M-50" value="" style="edgeStyle=orthogonalEdgeStyle;rounded=0;orthogonalLoop=1;jettySize=auto;html=1;curved=0;" edge="1" parent="1">
          <mxGeometry relative="1" as="geometry">
            <mxPoint x="1060.25" y="360" as="sourcePoint" />
            <mxPoint x="1239.75" y="361" as="targetPoint" />
            <Array as="points">
              <mxPoint x="1060.25" y="361" />
            </Array>
          </mxGeometry>
        </mxCell>
        <mxCell id="fi817YxVfnDkpDfHuI8M-51" value="Gửi dữ liệu" style="text;html=1;align=center;verticalAlign=middle;resizable=0;points=[];autosize=1;strokeColor=none;fillColor=none;" vertex="1" parent="1">
          <mxGeometry x="1110" y="330" width="80" height="30" as="geometry" />
        </mxCell>
        <mxCell id="fi817YxVfnDkpDfHuI8M-52" value="" style="endArrow=none;html=1;rounded=0;startArrow=classic;startFill=1;endFill=0;dashed=1;" edge="1" parent="1">
          <mxGeometry width="50" height="50" relative="1" as="geometry">
            <mxPoint x="1062.25" y="470" as="sourcePoint" />
            <mxPoint x="1237.75" y="470" as="targetPoint" />
            <Array as="points">
              <mxPoint x="1177.75" y="470" />
            </Array>
          </mxGeometry>
        </mxCell>
        <mxCell id="fi817YxVfnDkpDfHuI8M-53" value="Trả về kết quả kiểm tra" style="text;html=1;align=center;verticalAlign=middle;resizable=0;points=[];autosize=1;strokeColor=none;fillColor=none;" vertex="1" parent="1">
          <mxGeometry x="1075" y="478" width="150" height="30" as="geometry" />
        </mxCell>
        <mxCell id="fi817YxVfnDkpDfHuI8M-54" value="" style="endArrow=none;html=1;rounded=0;startArrow=classic;startFill=1;endFill=0;dashed=1;" edge="1" parent="1" target="fi817YxVfnDkpDfHuI8M-32">
          <mxGeometry width="50" height="50" relative="1" as="geometry">
            <mxPoint x="880" y="485" as="sourcePoint" />
            <mxPoint x="1054.75" y="485" as="targetPoint" />
            <Array as="points">
              <mxPoint x="982.75" y="485" />
            </Array>
          </mxGeometry>
        </mxCell>
        <mxCell id="fi817YxVfnDkpDfHuI8M-55" value="Thông báo truy vấn &lt;br&gt;dữ liệu thành công" style="text;html=1;align=center;verticalAlign=middle;resizable=0;points=[];autosize=1;strokeColor=none;fillColor=none;" vertex="1" parent="1">
          <mxGeometry x="900" y="485" width="130" height="40" as="geometry" />
        </mxCell>
        <mxCell id="fi817YxVfnDkpDfHuI8M-56" value="" style="endArrow=none;html=1;rounded=0;startArrow=classic;startFill=1;endFill=0;dashed=1;" edge="1" parent="1">
          <mxGeometry width="50" height="50" relative="1" as="geometry">
            <mxPoint x="740" y="500" as="sourcePoint" />
            <mxPoint x="880" y="500" as="targetPoint" />
            <Array as="points">
              <mxPoint x="820" y="500" />
            </Array>
          </mxGeometry>
        </mxCell>
        <mxCell id="fi817YxVfnDkpDfHuI8M-60" value="" style="endArrow=none;html=1;rounded=0;startArrow=classic;startFill=1;endFill=0;dashed=1;" edge="1" parent="1">
          <mxGeometry width="50" height="50" relative="1" as="geometry">
            <mxPoint x="1065" y="440" as="sourcePoint" />
            <mxPoint x="1235" y="440" as="targetPoint" />
            <Array as="points">
              <mxPoint x="1175" y="440" />
            </Array>
          </mxGeometry>
        </mxCell>
        <mxCell id="fi817YxVfnDkpDfHuI8M-61" value="Trả về kết quả kiểm tra" style="text;html=1;align=center;verticalAlign=middle;resizable=0;points=[];autosize=1;strokeColor=none;fillColor=none;" vertex="1" parent="1">
          <mxGeometry x="1075" y="408" width="150" height="30" as="geometry" />
        </mxCell>
        <mxCell id="fi817YxVfnDkpDfHuI8M-62" value="" style="endArrow=none;html=1;rounded=0;startArrow=classic;startFill=1;endFill=0;dashed=1;" edge="1" parent="1">
          <mxGeometry width="50" height="50" relative="1" as="geometry">
            <mxPoint x="885" y="440" as="sourcePoint" />
            <mxPoint x="1055" y="440" as="targetPoint" />
            <Array as="points">
              <mxPoint x="995" y="440" />
            </Array>
          </mxGeometry>
        </mxCell>
        <mxCell id="fi817YxVfnDkpDfHuI8M-63" value="yêu cầu nhập lại" style="text;html=1;align=center;verticalAlign=middle;resizable=0;points=[];autosize=1;strokeColor=none;fillColor=none;" vertex="1" parent="1">
          <mxGeometry x="905" y="408" width="110" height="30" as="geometry" />
        </mxCell>
        <mxCell id="fi817YxVfnDkpDfHuI8M-64" value="Chuyển màn hình&lt;br&gt;&amp;nbsp;kênh người bán" style="text;html=1;align=center;verticalAlign=middle;resizable=0;points=[];autosize=1;strokeColor=none;fillColor=none;" vertex="1" parent="1">
          <mxGeometry x="750" y="500" width="120" height="40" as="geometry" />
        </mxCell>
        <mxCell id="fi817YxVfnDkpDfHuI8M-65" value="Giao diện" style="shape=umlLifeline;perimeter=lifelinePerimeter;whiteSpace=wrap;html=1;container=0;dropTarget=0;collapsible=0;recursiveResize=0;outlineConnect=0;portConstraint=eastwest;newEdgeStyle={&quot;edgeStyle&quot;:&quot;elbowEdgeStyle&quot;,&quot;elbow&quot;:&quot;vertical&quot;,&quot;curved&quot;:0,&quot;rounded&quot;:0};" vertex="1" parent="1">
          <mxGeometry x="165" y="590" width="100" height="480" as="geometry" />
        </mxCell>
        <mxCell id="fi817YxVfnDkpDfHuI8M-66" value="" style="html=1;points=[[0,0,0,0,5],[0,1,0,0,-5],[1,0,0,0,5],[1,1,0,0,-5]];perimeter=orthogonalPerimeter;outlineConnect=0;targetShapes=umlLifeline;portConstraint=eastwest;newEdgeStyle={&quot;curved&quot;:0,&quot;rounded&quot;:0};" vertex="1" parent="fi817YxVfnDkpDfHuI8M-65">
          <mxGeometry x="45" y="80" width="10" height="170" as="geometry" />
        </mxCell>
        <mxCell id="fi817YxVfnDkpDfHuI8M-67" value="Hệ thống" style="shape=umlLifeline;perimeter=lifelinePerimeter;whiteSpace=wrap;html=1;container=0;dropTarget=0;collapsible=0;recursiveResize=0;outlineConnect=0;portConstraint=eastwest;newEdgeStyle={&quot;edgeStyle&quot;:&quot;elbowEdgeStyle&quot;,&quot;elbow&quot;:&quot;vertical&quot;,&quot;curved&quot;:0,&quot;rounded&quot;:0};" vertex="1" parent="1">
          <mxGeometry x="345" y="590" width="100" height="480" as="geometry" />
        </mxCell>
        <mxCell id="fi817YxVfnDkpDfHuI8M-68" value="" style="html=1;points=[[0,0,0,0,5],[0,1,0,0,-5],[1,0,0,0,5],[1,1,0,0,-5]];perimeter=orthogonalPerimeter;outlineConnect=0;targetShapes=umlLifeline;portConstraint=eastwest;newEdgeStyle={&quot;curved&quot;:0,&quot;rounded&quot;:0};" vertex="1" parent="fi817YxVfnDkpDfHuI8M-67">
          <mxGeometry x="45" y="130" width="10" height="120" as="geometry" />
        </mxCell>
        <mxCell id="fi817YxVfnDkpDfHuI8M-93" value="" style="html=1;points=[[0,0,0,0,5],[0,1,0,0,-5],[1,0,0,0,5],[1,1,0,0,-5]];perimeter=orthogonalPerimeter;outlineConnect=0;targetShapes=umlLifeline;portConstraint=eastwest;newEdgeStyle={&quot;curved&quot;:0,&quot;rounded&quot;:0};" vertex="1" parent="fi817YxVfnDkpDfHuI8M-67">
          <mxGeometry x="50" y="170" width="10" height="40" as="geometry" />
        </mxCell>
        <mxCell id="fi817YxVfnDkpDfHuI8M-94" value="Tìm dữ liệu" style="html=1;align=left;spacingLeft=2;endArrow=block;rounded=0;edgeStyle=orthogonalEdgeStyle;curved=0;rounded=0;" edge="1" parent="fi817YxVfnDkpDfHuI8M-67" target="fi817YxVfnDkpDfHuI8M-93">
          <mxGeometry relative="1" as="geometry">
            <mxPoint x="55" y="150" as="sourcePoint" />
            <Array as="points">
              <mxPoint x="85" y="180" />
            </Array>
          </mxGeometry>
        </mxCell>
        <mxCell id="fi817YxVfnDkpDfHuI8M-71" value="Firestore" style="shape=umlLifeline;perimeter=lifelinePerimeter;whiteSpace=wrap;html=1;container=0;dropTarget=0;collapsible=0;recursiveResize=0;outlineConnect=0;portConstraint=eastwest;newEdgeStyle={&quot;edgeStyle&quot;:&quot;elbowEdgeStyle&quot;,&quot;elbow&quot;:&quot;vertical&quot;,&quot;curved&quot;:0,&quot;rounded&quot;:0};" vertex="1" parent="1">
          <mxGeometry x="525" y="590" width="100" height="480" as="geometry" />
        </mxCell>
        <mxCell id="fi817YxVfnDkpDfHuI8M-72" value="" style="html=1;points=[[0,0,0,0,5],[0,1,0,0,-5],[1,0,0,0,5],[1,1,0,0,-5]];perimeter=orthogonalPerimeter;outlineConnect=0;targetShapes=umlLifeline;portConstraint=eastwest;newEdgeStyle={&quot;curved&quot;:0,&quot;rounded&quot;:0};" vertex="1" parent="fi817YxVfnDkpDfHuI8M-71">
          <mxGeometry x="45" y="250" width="10" height="40" as="geometry" />
        </mxCell>
        <mxCell id="fi817YxVfnDkpDfHuI8M-73" value="" style="shape=umlLifeline;perimeter=lifelinePerimeter;whiteSpace=wrap;html=1;container=1;dropTarget=0;collapsible=0;recursiveResize=0;outlineConnect=0;portConstraint=eastwest;newEdgeStyle={&quot;curved&quot;:0,&quot;rounded&quot;:0};participant=umlActor;" vertex="1" parent="1">
          <mxGeometry x="65" y="590" width="20" height="480" as="geometry" />
        </mxCell>
        <mxCell id="fi817YxVfnDkpDfHuI8M-75" value="" style="endArrow=classic;html=1;rounded=0;exitX=0.5;exitY=0.167;exitDx=0;exitDy=0;exitPerimeter=0;" edge="1" parent="1" source="fi817YxVfnDkpDfHuI8M-73" target="fi817YxVfnDkpDfHuI8M-65">
          <mxGeometry width="50" height="50" relative="1" as="geometry">
            <mxPoint x="405" y="830" as="sourcePoint" />
            <mxPoint x="445" y="780" as="targetPoint" />
            <Array as="points">
              <mxPoint x="145" y="670" />
            </Array>
          </mxGeometry>
        </mxCell>
        <mxCell id="fi817YxVfnDkpDfHuI8M-76" value="Nhập từ khóa theo tên" style="text;html=1;align=center;verticalAlign=middle;resizable=0;points=[];autosize=1;strokeColor=none;fillColor=none;" vertex="1" parent="1">
          <mxGeometry x="75" y="640" width="140" height="30" as="geometry" />
        </mxCell>
        <mxCell id="fi817YxVfnDkpDfHuI8M-81" value="" style="edgeStyle=orthogonalEdgeStyle;rounded=0;orthogonalLoop=1;jettySize=auto;html=1;curved=0;" edge="1" parent="1">
          <mxGeometry relative="1" as="geometry">
            <mxPoint x="220.5" y="720" as="sourcePoint" />
            <mxPoint x="394.5" y="721" as="targetPoint" />
            <Array as="points">
              <mxPoint x="221" y="721" />
            </Array>
          </mxGeometry>
        </mxCell>
        <mxCell id="fi817YxVfnDkpDfHuI8M-82" value="Gửi dữ liệu" style="text;html=1;align=center;verticalAlign=middle;resizable=0;points=[];autosize=1;strokeColor=none;fillColor=none;" vertex="1" parent="1">
          <mxGeometry x="260" y="690" width="80" height="30" as="geometry" />
        </mxCell>
        <mxCell id="fi817YxVfnDkpDfHuI8M-85" value="" style="edgeStyle=orthogonalEdgeStyle;rounded=0;orthogonalLoop=1;jettySize=auto;html=1;curved=0;" edge="1" parent="1">
          <mxGeometry relative="1" as="geometry">
            <mxPoint x="395.25" y="840" as="sourcePoint" />
            <mxPoint x="574.75" y="841" as="targetPoint" />
            <Array as="points">
              <mxPoint x="395.25" y="841" />
            </Array>
          </mxGeometry>
        </mxCell>
        <mxCell id="fi817YxVfnDkpDfHuI8M-86" value="Yêu cầu dữ liệu" style="text;html=1;align=center;verticalAlign=middle;resizable=0;points=[];autosize=1;strokeColor=none;fillColor=none;" vertex="1" parent="1">
          <mxGeometry x="430" y="810" width="110" height="30" as="geometry" />
        </mxCell>
        <mxCell id="fi817YxVfnDkpDfHuI8M-87" value="" style="endArrow=none;html=1;rounded=0;startArrow=classic;startFill=1;endFill=0;dashed=1;" edge="1" parent="1">
          <mxGeometry width="50" height="50" relative="1" as="geometry">
            <mxPoint x="394.5" y="880" as="sourcePoint" />
            <mxPoint x="570" y="880" as="targetPoint" />
            <Array as="points">
              <mxPoint x="510" y="880" />
            </Array>
          </mxGeometry>
        </mxCell>
        <mxCell id="fi817YxVfnDkpDfHuI8M-88" value="Trả về dữ liệu" style="text;html=1;align=center;verticalAlign=middle;resizable=0;points=[];autosize=1;strokeColor=none;fillColor=none;" vertex="1" parent="1">
          <mxGeometry x="440" y="890" width="100" height="30" as="geometry" />
        </mxCell>
        <mxCell id="fi817YxVfnDkpDfHuI8M-89" value="" style="endArrow=none;html=1;rounded=0;startArrow=classic;startFill=1;endFill=0;dashed=1;" edge="1" parent="1">
          <mxGeometry width="50" height="50" relative="1" as="geometry">
            <mxPoint x="215" y="910" as="sourcePoint" />
            <mxPoint x="394.5" y="910" as="targetPoint" />
            <Array as="points">
              <mxPoint x="322.5" y="910" />
            </Array>
          </mxGeometry>
        </mxCell>
        <mxCell id="fi817YxVfnDkpDfHuI8M-90" value="&lt;p style=&quot;line-height: 10%;&quot;&gt;Hiển thị dữ liệu&lt;/p&gt;" style="text;html=1;align=center;verticalAlign=middle;resizable=0;points=[];autosize=1;strokeColor=none;fillColor=none;" vertex="1" parent="1">
          <mxGeometry x="250" y="910" width="100" height="40" as="geometry" />
        </mxCell>
        <mxCell id="fi817YxVfnDkpDfHuI8M-91" value="" style="endArrow=none;html=1;rounded=0;startArrow=classic;startFill=1;endFill=0;dashed=1;" edge="1" parent="1">
          <mxGeometry width="50" height="50" relative="1" as="geometry">
            <mxPoint x="75" y="940" as="sourcePoint" />
            <mxPoint x="215" y="940" as="targetPoint" />
            <Array as="points">
              <mxPoint x="155" y="940" />
            </Array>
          </mxGeometry>
        </mxCell>
        <mxCell id="fi817YxVfnDkpDfHuI8M-92" value="Hiển thị sản phẩm" style="text;html=1;align=center;verticalAlign=middle;resizable=0;points=[];autosize=1;strokeColor=none;fillColor=none;" vertex="1" parent="1">
          <mxGeometry x="85" y="955" width="120" height="30" as="geometry" />
        </mxCell>
        <mxCell id="fi817YxVfnDkpDfHuI8M-95" value="" style="endArrow=none;html=1;rounded=0;startArrow=classic;startFill=1;endFill=0;dashed=1;" edge="1" parent="1" target="fi817YxVfnDkpDfHuI8M-68">
          <mxGeometry width="50" height="50" relative="1" as="geometry">
            <mxPoint x="220" y="820" as="sourcePoint" />
            <mxPoint x="390" y="820" as="targetPoint" />
            <Array as="points">
              <mxPoint x="330" y="820" />
            </Array>
          </mxGeometry>
        </mxCell>
        <mxCell id="fi817YxVfnDkpDfHuI8M-96" value="Không tìm thấy" style="text;html=1;align=center;verticalAlign=middle;resizable=0;points=[];autosize=1;strokeColor=none;fillColor=none;" vertex="1" parent="1">
          <mxGeometry x="250" y="790" width="100" height="30" as="geometry" />
        </mxCell>
      </root>
    </mxGraphModel>
  </diagram>
</mxfile>
